<?xml version="1.0" standalone="no"?>
<!DOCTYPE svg PUBLIC "-//W3C//DTD SVG 20010904//EN"
 "http://www.w3.org/TR/2001/REC-SVG-20010904/DTD/svg10.dtd">
<svg version="1.0" xmlns="http://www.w3.org/2000/svg"
 width="512.000000pt" height="512.000000pt" viewBox="0 0 512.000000 512.000000"
 preserveAspectRatio="xMidYMid meet">
<metadata>
Created by potrace 1.14, written by Peter Selinger 2001-2017
</metadata>
<g transform="translate(0.000000,512.000000) scale(0.100000,-0.100000)"
fill="#000000" stroke="none">
<path d="M1901 5083 c-7 -21 -36 -99 -64 -173 -28 -74 -63 -169 -78 -210 -14
-41 -100 -271 -189 -510 -90 -239 -173 -462 -185 -495 -127 -342 -357 -960
-365 -978 -5 -12 -55 -146 -111 -297 -55 -151 -250 -673 -431 -1160 -182 -487
-341 -914 -354 -950 -12 -36 -43 -119 -69 -184 -25 -65 -45 -121 -45 -123 0
-1 269 -3 598 -3 l597 0 185 555 184 555 51 0 c252 2 1918 0 1920 -2 1 -2 85
-250 187 -553 l184 -550 597 -3 c328 -1 597 0 597 2 0 3 -94 256 -209 563
-115 307 -376 1006 -581 1553 -204 547 -375 1004 -380 1015 -5 11 -153 407
-330 880 -327 876 -375 1005 -390 1040 -5 11 -12 30 -15 43 l-6 22 -643 0
-642 0 -13 -37z m939 -1874 c155 -459 304 -901 332 -984 27 -82 54 -162 58
-176 l8 -25 -678 -1 -677 0 14 46 c38 128 656 1981 659 1978 2 -2 130 -379
284 -838z"/>
</g>
</svg>
